<svg xmlns="http://www.w3.org/2000/svg" viewBox="0 0 450 438.75"><path d="M79.688 0h290.625C414.379 0 450 35.625 450 79.688v279.375c0 44.062-35.621 79.687-79.688 79.687H79.688C35.626 438.75 0 403.125 0 359.062V79.688C0 35.626 35.625 0 79.688 0" fill="#00005b"/><path d="M121.879 225.184H169.5c-1.125-3.938-2.625-8.621-4.313-13.496-1.683-5.067-3.375-10.5-5.058-16.125-1.879-5.817-3.566-11.442-5.441-17.25-1.872-5.813-3.56-11.25-5.063-16.688-1.5-5.25-2.813-10.129-4.125-14.629h-.375c-1.688 8.066-3.75 16.125-6.375 24.191-2.813 9-5.621 18.375-8.625 27.75-2.438 9.563-5.434 18.375-8.246 26.247M180.75 262.5H111l-14.25 44.246c-.375 1.692-1.871 2.817-3.559 2.629H57.937c-2.062 0-2.624-1.125-2.062-3.375l60.375-173.063c.563-1.875 1.125-3.562 1.875-5.812.75-3.938 1.125-8.063 1.125-12.188-.184-.937.563-1.874 1.504-2.062h48.562c1.309 0 2.246.563 2.434 1.496l68.438 192.192c.562 2.058 0 3-1.875 3h-39.188c-1.313.183-2.625-.75-2.996-2.063M291.938 217.871H331.5c4.875 0 8.438 0 10.688-.184 1.5-.187 3.003-.562 4.312-1.5v-1.875c0-2.437-.379-4.687-1.125-6.937-3.375-10.5-13.313-17.629-24.371-17.25-10.317-.563-20.067 4.875-24.942 14.25-2.25 4.313-3.566 8.813-4.125 13.496m59.442 27.379h-59.442c.75 5.813 2.625 11.625 5.813 16.688 3.375 5.062 8.063 9 13.691 11.25 7.497 3.187 15.747 4.875 23.997 4.687 6.562-.188 13.125-.75 19.5-2.063 5.812-.75 11.437-2.25 16.687-4.312.938-.75 1.5-.379 1.5 1.5v28.688c0 .75-.188 1.5-.375 2.25a4.38 4.38 0 01-1.313 1.312c-6 2.625-12.187 4.5-18.75 5.625a126.663 126.663 0 01-26.625 2.25c-14.25 0-26.25-2.25-36-6.563-9.19-3.937-17.25-10.125-23.625-17.816-6-7.308-10.312-15.558-12.933-24.558-2.629-8.813-3.941-18-3.941-27.38 0-10.12 1.5-20.062 4.687-29.812a76.538 76.538 0 0114.063-25.684c6.187-7.5 13.875-13.5 22.687-17.812 8.813-4.313 19.316-5.816 31.313-5.816 9.937-.184 19.875 1.687 29.066 5.816 7.683 3.375 14.433 8.438 19.683 14.996 4.875 6.379 8.813 13.5 11.25 21.379 2.438 7.5 3.563 15.188 3.563 22.875 0 4.5-.188 8.438-.375 12-.371 3.563-.563 6.188-.75 7.875-.188 1.313-1.313 2.438-2.625 2.438-1.125 0-3.188.187-6.188.375-3 .375-6.562.562-10.875.562-4.312 0-8.812-.75-13.683-.75" fill="#99f"/></svg>