<svg xmlns="http://www.w3.org/2000/svg" viewBox="0 0 48 48"><path fill="#b388ff" d="M6 10a4 4 0 014-4h28a4 4 0 014 4v28a4 4 0 01-4 4H10a4 4 0 01-4-4V10z"/><path fill="#170b40" d="M9 9v30h30V9H9z"/><path fill="#b388ff" d="M21.183 27.965h-4.555l-.866 2.846H13L17.694 17h2.407l4.719 13.81h-2.762l-.875-2.845zM17.33 25.66h3.152l-1.584-5.17-1.568 5.17zM30.146 31c-.728 0-1.379-.13-1.953-.389a4.32 4.32 0 01-1.464-1.063 4.62 4.62 0 01-.918-1.579 5.864 5.864 0 01-.316-1.94v-.37c0-.778.103-1.491.308-2.139a5.027 5.027 0 01.875-1.674 3.997 3.997 0 011.376-1.096 4.103 4.103 0 011.814-.394c.675 0 1.27.122 1.784.365s.945.585 1.295 1.025c.349.439.612.969.788 1.589s.265 1.31.265 2.069v1.167h-5.966c.04.335.123.639.247.91.124.272.283.504.476.697s.42.343.679.451c.26.108.552.161.875.161.456 0 .878-.093 1.264-.28.387-.186.719-.476.996-.868l1.23 1.508c-.15.234-.338.462-.563.683a3.836 3.836 0 01-.797.593c-.306.174-.65.313-1.035.417a4.762 4.762 0 01-1.26.157zm-.285-8.423a1.55 1.55 0 00-.715.157 1.58 1.58 0 00-.528.436 2.315 2.315 0 00-.359.669 4.126 4.126 0 00-.198.863h3.481v-.218a2.99 2.99 0 00-.109-.759 1.706 1.706 0 00-.303-.607 1.373 1.373 0 00-.519-.398 1.825 1.825 0 00-.75-.143z"/></svg>