<svg xmlns="http://www.w3.org/2000/svg" viewBox="0 0 48 48"><ellipse cx="24.5" cy="24.5" fill="#616161" rx="18.5" ry="19.5"/><ellipse cx="28" cy="20.419" fill="#212121" rx="15" ry="14.516"/><path fill="#3949ab" d="M27 7s5 2 2.899 3.782c-1.063.901-2.414 1.378-3.674 1.968-1.463.685-2.97 1.28-4.292 2.238-.999.724-1.943 1.502-2.621 2.548-.812 1.252-1.29 2.622-1.372 4.118a8.08 8.08 0 00.736 3.86c.799 1.74 2.096 3.013 3.798 3.889a7.88 7.88 0 003.853.881c1.588-.037 3.051-.487 4.364-1.393.745-.514 1.339-1.166 1.899-1.88a14.198 14.198 0 001.62-2.65c.559-1.164.98-2.384 1.443-3.588.355-.922.717-1.849 1.268-2.672C39 15 41 18 41 18s-1-4-4-7-10-4-10-4z"/><path fill="#e0e0e0" d="M38 20c-.44 5.613-1.547 9.809-3.06 12.926-2.3 5.692-8.099 9.594-14.737 9.018-6.975-.606-12.623-6.317-13.159-13.298-.425-5.533 2.261-10.466 6.487-13.253C16.989 12.844 21.838 11.832 26 11c3.372-.674 5.038-1.69 5.766-2.739.716-1.032.161-2.471-1.012-2.919a20.291 20.291 0 00-8.755-1.287C11.255 4.844 2.806 14.112 3.004 24.883c.215 11.783 10.373 21.137 22.437 20.028 9.176-.844 16.776-7.919 18.277-17.01a20.366 20.366 0 00-1.253-11.142c-.647-1.573-2.863-1.716-3.63-.198-.588 1.165-.779 2.725-.835 3.439z"/></svg>