<?xml version="1.0" encoding="iso-8859-1"?>
<!-- Generator: Adobe Illustrator 16.0.0, SVG Export Plug-In . SVG Version: 6.00 Build 0)  -->
<!DOCTYPE svg PUBLIC "-//W3C//DTD SVG 1.1//EN" "http://www.w3.org/Graphics/SVG/1.1/DTD/svg11.dtd">
<svg fill="white" version="1.1" id="Capa_1" xmlns="http://www.w3.org/2000/svg" xmlns:xlink="http://www.w3.org/1999/xlink" x="0px" y="0px"
	 width="91.002px" height="91.002px" viewBox="0 0 91.002 91.002" style="enable-background:new 0 0 91.002 91.002;"
	 xml:space="preserve" >
<g>
	<path d="M80.845,47.014l-3.127-3.128L39.509,5.678c-7.57-7.57-19.888-7.57-27.458,0c-7.329,7.329-7.542,19.093-0.685,26.704
		c0.105,0.135,0.2,0.274,0.323,0.396l32.546,32.548c5.155,5.152,13.541,5.153,18.695,0c5.156-5.156,5.156-13.543,0.003-18.697
		l-18.63-18.629c-1.8-1.801-4.721-1.8-6.521,0c-1.802,1.8-1.803,4.719,0,6.521l18.629,18.629c1.56,1.561,1.56,4.098-0.001,5.656
		c-1.561,1.561-4.098,1.561-5.656,0L18.568,26.618c-3.976-3.977-3.975-10.444,0-14.422c3.978-3.975,10.444-3.975,14.42,0
		l38.208,38.21l3.129,3.127c6.454,6.454,6.454,16.957,0,23.41c-6.453,6.454-16.955,6.454-23.41,0L10.488,36.519
		c-1.8-1.8-4.719-1.801-6.52,0c-1.801,1.8-1.8,4.72,0,6.521l40.426,40.425c10.05,10.05,26.401,10.052,36.451,0.003
		C90.896,73.416,90.895,57.063,80.845,47.014z"/>
</g>

</svg>

