<svg xmlns="http://www.w3.org/2000/svg" viewBox="0 0 1000 1000"><path fill="currentColor" d="M75 0C33 0 0 33 0 75v850c0 42 33 75 75 75h850c42 0 75-33 75-75V75c0-42-33-75-75-75H75m300 1000c0-50 1-101 1-143-126 23-158-31-168-59-6-14-30-58-52-70-17-10-42-33 0-33 39-1 67 36 77 51 45 75 116 54 145 41 5-32 18-54 32-67-111-12-227-55-227-247 0-54 19-99 51-134-5-12-23-64 5-132 0 0 42-13 137 51 40-11 83-17 125-17 43 0 85 6 125 17 96-65 138-51 138-51 27 68 10 120 5 132 32 35 51 79 51 134 0 192-117 235-228 247 18 16 34 46 34 93 0 53-1 137-1 187"/></svg>