<svg xmlns="http://www.w3.org/2000/svg" viewBox="0 0 1000 1000"><path fill="currentColor" d="M75 0C33 0 0 33 0 75v850c0 42 33 75 75 75h850c42 0 75-33 75-75V75c0-42-33-75-75-75H75m714 567c1 7 2 14 2 21 0 112-130 202-290 202s-290-90-290-202c0-7 1-15 2-22-25-11-43-36-43-66 0-40 33-73 73-73 19 0 37 9 50 21 50-37 119-60 196-62l37-173c1-3 2-6 5-8s7-2 10-2l120 26c9-18 26-29 46-29 29 0 52 23 52 51 0 29-23 52-52 52-28 0-50-22-51-49l-108-23-33 155c76 3 144 26 193 62 13-13 31-21 50-21 41 0 73 33 73 73 0 30-18 55-42 67m-403 36c29 0 52-23 52-51 0-29-23-52-52-52-28 0-52 23-52 52 0 28 24 51 52 51m238 66c-5-5-14-5-19 0-23 22-70 30-104 30s-82-8-104-30c-5-5-14-5-19 0s-5 14 0 19c35 35 103 38 123 38 19 0 87-2 122-38 5-5 5-13 1-19m42-117c0-29-24-52-52-52-29 0-52 23-52 52 0 28 23 51 52 51 28 0 52-23 52-51"/></svg>