<svg xmlns="http://www.w3.org/2000/svg" fill="currentColor" viewBox="0 0 30 30"><path d="M14.984.986A1 1 0 0014 2v3a1 1 0 102 0V2A1 1 0 0014.984.986zM5.797 4.8a1 1 0 00-.695 1.717l2.12 2.12a1 1 0 101.415-1.413L6.516 5.102a1 1 0 00-.72-.303zm18.375 0a1 1 0 00-.688.303l-2.12 2.12a1 1 0 101.413 1.415l2.121-2.121a1 1 0 00-.726-1.717zM15 8a7 7 0 00-7 7 7 7 0 007 7 7 7 0 007-7 7 7 0 00-7-7zM2 14a1 1 0 100 2h3a1 1 0 100-2H2zm23 0a1 1 0 100 2h3a1 1 0 100-2h-3zM7.91 21.06a1 1 0 00-.687.303l-2.121 2.121a1 1 0 101.414 1.414l2.12-2.12a1 1 0 00-.726-1.717zm14.15 0a1 1 0 00-.697 1.717l2.121 2.121a1 1 0 101.414-1.414l-2.12-2.12a1 1 0 00-.717-.303zm-7.076 2.926A1 1 0 0014 25v3a1 1 0 102 0v-3a1 1 0 00-1.016-1.014z"/></svg>